<?xml version="1.0" encoding="UTF-8"?>
<!DOCTYPE svg PUBLIC "-//W3C//DTD SVG 1.1//EN" "http://www.w3.org/Graphics/SVG/1.1/DTD/svg11.dtd">
<svg xmlns="http://www.w3.org/2000/svg">
    <symbol id="warning" viewBox="0 0 43 38" fill="none">
        <path d="M41.4273 30.6185C41.4273 30.6031 41.4233 30.5879 41.4157 30.5745L25.5333 2.45605C25.1125 1.71291 24.491 1.09257 23.7343 0.660346C22.9776 0.228121 22.1136 0 21.2334 0C20.3532 0 19.4892 0.228121 18.7325 0.660346C17.9758 1.09257 17.3543 1.71291 16.9335 2.45605L1.0232 30.595C0.606768 31.3135 0.39352 32.1243 0.404716 32.9467C0.415912 33.7691 0.651159 34.5742 1.08701 35.282C1.52286 35.9897 2.14409 36.5753 2.88878 36.9804C3.63346 37.3854 4.47559 37.5958 5.33123 37.5905H37.1192C37.9679 37.5913 38.8021 37.38 39.5401 36.9773C40.2782 36.5747 40.8946 35.9946 41.3291 35.2939C41.7635 34.5932 42.001 33.796 42.0182 32.9804C42.0352 32.1727 41.8356 31.3745 41.4388 30.6626C41.4313 30.6491 41.4273 30.634 41.4273 30.6185ZM38.5226 33.6379C38.3782 33.872 38.1728 34.066 37.9268 34.2008C37.6807 34.3355 37.4024 34.4064 37.1192 34.4065H5.33123C5.04758 34.4072 4.76863 34.3369 4.52188 34.2024C4.27513 34.0679 4.06912 33.8739 3.92415 33.6396C3.77919 33.4052 3.70027 33.1386 3.6952 32.866C3.69013 32.5934 3.75907 32.3242 3.89522 32.0851L19.7892 3.94612C19.929 3.69712 20.1363 3.48911 20.3891 3.34414C20.642 3.19916 20.9309 3.12262 21.2252 3.12262C21.5196 3.12262 21.8085 3.19916 22.0613 3.34414C22.3141 3.48911 22.5214 3.69712 22.6612 3.94612L38.5552 32.0851C38.6905 32.3244 38.7586 32.5934 38.7529 32.8656C38.7472 33.1379 38.6678 33.4041 38.5226 33.6379Z" fill="currentColor"/>
        <path d="M23.673 28.603C23.673 29.9024 22.5771 30.9557 21.2252 30.9557C19.8734 30.9557 18.7775 29.9024 18.7775 28.603C18.7775 27.3036 19.8734 26.2502 21.2252 26.2502C22.5771 26.2502 23.673 27.3036 23.673 28.603Z" fill="currentColor"/>
        <path d="M21.3069 23.9759C21.8695 23.9759 22.4091 23.7611 22.8069 23.3787C23.2047 22.9963 23.4282 22.4776 23.4282 21.9369V12.4945C23.4282 11.9537 23.2047 11.435 22.8069 11.0526C22.4091 10.6702 21.8695 10.4554 21.3069 10.4554C20.7442 10.4554 20.2047 10.6702 19.8068 11.0526C19.409 11.435 19.1855 11.9537 19.1855 12.4945V21.9055C19.1812 22.1759 19.2328 22.4444 19.3375 22.6954C19.4422 22.9465 19.5977 23.175 19.7952 23.3676C19.9926 23.5603 20.2279 23.7133 20.4874 23.8177C20.747 23.9222 21.0255 23.9759 21.3069 23.9759Z" fill="currentColor"/>
   </symbol>
   <symbol id="close-bold" viewBox="0 0 20 20" fill="none">
        <path
            d="M3.8113 3.81227C4.04571 3.57793 4.36359 3.44629 4.69505 3.44629C5.0265 3.44629 5.34439 3.57793 5.5788 3.81227L9.9988 8.23227L14.4188 3.81227C14.6545 3.58457 14.9703 3.45858 15.298 3.46143C15.6258 3.46428 15.9393 3.59574 16.1711 3.8275C16.4028 4.05926 16.5343 4.37277 16.5371 4.70052C16.54 5.02827 16.414 5.34402 16.1863 5.57977L11.7663 9.99977L16.1863 14.4198C16.414 14.6555 16.54 14.9713 16.5371 15.299C16.5343 15.6268 16.4028 15.9403 16.1711 16.172C15.9393 16.4038 15.6258 16.5353 15.298 16.5381C14.9703 16.541 14.6545 16.415 14.4188 16.1873L9.9988 11.7673L5.5788 16.1873C5.34304 16.415 5.02729 16.541 4.69954 16.5381C4.3718 16.5353 4.05828 16.4038 3.82652 16.172C3.59476 15.9403 3.4633 15.6268 3.46045 15.299C3.4576 14.9713 3.5836 14.6555 3.8113 14.4198L8.2313 9.99977L3.8113 5.57977C3.57696 5.34536 3.44531 5.02748 3.44531 4.69602C3.44531 4.36457 3.57696 4.04668 3.8113 3.81227Z"
            fill="currentColor" />
    </symbol>
</svg>